<svg width="1280" height="419" viewBox="0 0 1280 419" fill="none" xmlns="http://www.w3.org/2000/svg">
<rect x="-43" y="-38" width="1558" height="457" fill="#C2EDFF"/>
<path d="M837.584 72.2206H756.901C752.793 72.2206 749.463 75.5508 749.463 79.6587V195.034C749.463 199.142 752.793 202.472 756.901 202.472H837.584C841.692 202.472 845.022 199.142 845.022 195.034V79.6587C845.022 75.5508 841.692 72.2206 837.584 72.2206Z" stroke="#9F9F9F" stroke-width="2.15901" stroke-miterlimit="10"/>
<path d="M834.102 85.6396H761.362C759.308 85.6396 757.643 87.3046 757.643 89.3586V104.829C757.643 106.883 759.308 108.548 761.362 108.548H834.102C836.156 108.548 837.821 106.883 837.821 104.829V89.3586C837.821 87.3046 836.156 85.6396 834.102 85.6396Z" stroke="#9F9F9F" stroke-width="2.15901" stroke-miterlimit="10"/>
<path d="M797.725 133.102C795.201 133.103 792.734 133.852 790.636 135.255C788.538 136.657 786.903 138.651 785.938 140.983C784.973 143.315 784.721 145.881 785.214 148.356C785.707 150.831 786.922 153.105 788.707 154.889C790.492 156.674 792.766 157.889 795.242 158.381C797.717 158.873 800.283 158.62 802.614 157.654C804.946 156.688 806.939 155.052 808.341 152.953C809.743 150.855 810.491 148.388 810.491 145.864C810.491 144.188 810.161 142.527 809.52 140.979C808.878 139.43 807.938 138.023 806.752 136.838C805.566 135.653 804.159 134.713 802.61 134.072C801.062 133.431 799.401 133.101 797.725 133.102ZM797.725 155.546C797.246 155.522 796.794 155.315 796.463 154.968C796.133 154.621 795.948 154.159 795.948 153.68C795.948 153.2 796.133 152.738 796.463 152.391C796.794 152.044 797.246 151.837 797.725 151.813C798.204 151.837 798.656 152.044 798.987 152.391C799.318 152.738 799.502 153.2 799.502 153.68C799.502 154.159 799.318 154.621 798.987 154.968C798.656 155.315 798.204 155.522 797.725 155.546ZM800.081 141.193C799.688 143.96 799.357 146.865 798.53 149.556C798.333 150.204 797.117 150.204 796.921 149.556C796.338 147.533 795.89 145.474 795.58 143.392C795.325 141.877 794.44 139.423 795.285 137.952C796.031 136.611 798.132 136.477 799.352 137.165C800.85 138.01 800.26 139.816 800.081 141.193Z" fill="#9F9F9F"/>
<path d="M658.087 98.08C653.612 96.7457 648.843 96.7685 644.381 98.1449C639.92 99.5216 635.967 102.19 633.022 105.814C630.077 109.437 628.273 113.852 627.838 118.501C627.403 123.149 628.355 127.823 630.577 131.93C632.797 136.037 636.186 139.393 640.315 141.574C644.443 143.755 649.125 144.663 653.769 144.183C658.414 143.702 662.811 141.856 666.406 138.876C670 135.897 672.631 131.918 673.964 127.443C674.85 124.473 675.142 121.357 674.823 118.273C674.505 115.19 673.582 112.199 672.108 109.473C670.633 106.746 668.636 104.337 666.231 102.382C663.825 100.427 661.058 98.9651 658.087 98.08ZM646.228 137.863C645.375 137.581 644.666 136.979 644.25 136.183C643.835 135.387 643.746 134.46 644.003 133.6C644.259 132.74 644.841 132.013 645.624 131.575C646.408 131.136 647.332 131.02 648.199 131.252C648.645 131.371 649.063 131.578 649.427 131.861C649.792 132.145 650.096 132.498 650.321 132.901C650.546 133.304 650.689 133.748 650.739 134.207C650.79 134.665 650.748 135.13 650.617 135.572C650.485 136.014 650.265 136.426 649.972 136.782C649.678 137.138 649.316 137.432 648.906 137.645C648.497 137.859 648.049 137.988 647.589 138.026C647.129 138.063 646.666 138.008 646.228 137.863ZM657.984 113.662C655.825 118.36 653.697 123.336 650.832 127.667C650.144 128.713 647.985 128.069 647.98 126.818C648.017 122.928 648.315 119.045 648.874 115.196C649.223 112.384 648.95 107.565 651.225 105.402C653.246 103.466 657.036 104.298 658.847 106.157C661.024 108.428 659.03 111.32 657.984 113.662Z" fill="#3FBDF1"/>
<path d="M592.154 150.346C590.517 152.012 589.411 154.126 588.976 156.421C588.54 158.715 588.794 161.087 589.707 163.237C590.619 165.387 592.149 167.218 594.102 168.499C596.055 169.78 598.343 170.453 600.679 170.433C603.015 170.413 605.292 169.701 607.223 168.387C609.153 167.073 610.651 165.216 611.526 163.051C612.402 160.885 612.616 158.509 612.141 156.222C611.666 153.935 610.524 151.841 608.859 150.203C606.624 148.008 603.61 146.789 600.477 146.816C597.344 146.843 594.351 148.113 592.154 150.346ZM606.968 164.905C606.809 165.067 606.62 165.196 606.411 165.284C606.203 165.373 605.979 165.42 605.752 165.422C605.525 165.424 605.301 165.381 605.091 165.296C604.88 165.212 604.689 165.086 604.527 164.928C604.365 164.769 604.237 164.58 604.148 164.371C604.059 164.163 604.013 163.938 604.011 163.712C604.009 163.485 604.051 163.26 604.136 163.05C604.221 162.84 604.346 162.649 604.505 162.487C604.825 162.16 605.263 161.975 605.721 161.97C606.178 161.966 606.619 162.144 606.946 162.465C607.272 162.785 607.458 163.223 607.462 163.68C607.466 164.138 607.288 164.578 606.968 164.905ZM599.025 154.048C600.594 156.104 602.297 158.209 603.535 160.498C603.834 161.048 603.048 161.839 602.493 161.562C600.786 160.63 599.144 159.585 597.576 158.433C596.41 157.624 594.219 156.613 593.795 155.098C593.41 153.757 594.689 152.264 595.914 151.911C597.42 151.473 598.229 153.033 599.025 154.048Z" fill="#3FBDF1"/>
<path d="M765.662 118.775H828.005" stroke="#9F9F9F" stroke-width="2.15901" stroke-miterlimit="10"/>
<path d="M765.662 124.913H828.005" stroke="#9F9F9F" stroke-width="2.15901" stroke-miterlimit="10"/>
<path d="M765.662 164.427H828.005" stroke="#9F9F9F" stroke-width="2.15901" stroke-miterlimit="10"/>
<path d="M780.14 170.234H813.522" stroke="#9F9F9F" stroke-width="2.15901" stroke-miterlimit="10"/>
<path d="M845.027 156.372C850.525 163.283 855.755 171.847 860.484 182.401C889.28 246.706 853.287 279.342 853.287 279.342" stroke="#9F9F9F" stroke-width="2.15901" stroke-miterlimit="10"/>
<path d="M544.263 207.363C544.263 207.363 501.534 158.894 554.816 134.895C608.099 110.896 618.648 107.561 614.804 82.596C610.96 57.631 641.177 32.2101 688.697 49.0084C736.218 65.8066 737.17 97.4632 733.8 121.936C731.887 135.887 739.803 139.24 749.445 138.538" stroke="#9F9F9F" stroke-width="2.15901" stroke-miterlimit="10"/>
<path d="M842.014 300.258C841.905 302.933 841.213 305.553 839.984 307.933C839.936 308.051 839.879 308.166 839.815 308.277C837.66 312.147 834.646 315.472 831.004 317.995L830.875 318.084C827.587 320.283 823.89 321.796 820.004 322.532H861.369C861.369 322.532 855.835 243.614 804.975 205.217C755.756 168.062 709.675 185.969 706.752 187.167C707.657 189.724 708.062 192.431 707.945 195.141C707.945 195.141 711.646 197.068 712.263 203.965C712.88 210.862 714.167 230.038 701.79 233.65C701.79 233.65 690.678 233.378 687.741 229.113C684.804 224.849 684.098 225.716 682.945 226.798C682.051 227.616 676.655 230.539 674.165 231.88C674.48 231.895 674.793 231.939 675.1 232.01C675.1 232.01 676.526 244.043 693.972 262.902C694.563 263.525 695.121 264.178 695.644 264.86C698.278 267.163 701.239 269.514 704.526 271.913L724.435 286.481C724.884 286.863 725.417 287.134 725.991 287.272C727.105 287.553 728.269 287.564 729.388 287.304C731.703 286.857 747.514 285.243 757.745 284.224C757.978 284.224 758.224 284.179 758.452 284.152L759.793 284.023C760.007 284.023 760.24 283.978 760.427 283.965L761.634 283.848C762.224 283.79 762.756 283.732 763.248 283.692L764.589 283.562C765.774 283.446 766.475 283.375 766.533 283.375C768.971 283.305 771.401 283.069 773.806 282.668C776.108 282.221 778.209 281.502 778.754 280.308C778.858 280.056 778.896 279.782 778.866 279.512C778.743 278.753 778.425 278.039 777.945 277.438C775.844 274.618 770.963 272.2 770.606 272.025C770.595 272.022 770.585 272.022 770.574 272.025L770.476 271.954L741.421 249.38H741.39C741.39 249.38 745.766 202.695 785.643 214.183C785.643 214.183 785.83 214.313 786.175 214.599C787.73 215.797 792.625 219.766 799.822 227.182C800.009 227.383 800.21 227.584 800.412 227.799C801.176 228.577 801.927 229.386 802.673 230.177C807.725 235.577 813.701 242.456 820.294 251.034L820.339 251.079C827.893 260.913 833.338 269.924 836.878 277.899V277.926C840.709 286.593 842.322 294.018 842.005 299.94C842.015 300.046 842.018 300.152 842.014 300.258ZM721.74 220.017C720.56 206.415 727.18 201.489 727.551 201.216C718.137 218.247 735.597 244.351 736.209 245.362C735.708 244.941 722.92 233.614 721.74 220.017Z" fill="#353642"/>
<path d="M696.734 217.348C696.245 217.708 695.734 218.04 695.206 218.34L692.139 212.976C699.211 209.36 701.195 202.986 698.084 199.486C697.215 198.528 696.093 197.835 694.848 197.483C691.719 196.536 689.551 197.93 688.081 199.803C686.88 201.431 686 203.273 685.488 205.23L683.995 188.011L683.879 186.67C683.879 186.67 680.625 185.057 671.81 186.496C662.995 187.935 661.372 192.803 657.586 190.644C653.8 188.485 651.654 188.66 651.654 188.66C650.577 192.616 647.694 192.616 647.694 192.616C647.011 192.533 646.34 192.37 645.696 192.128C641.606 188.369 640.497 181.847 640.497 181.847C644.789 181.315 645.119 177.185 644.628 173.801C647.006 175.214 650.358 175.312 655.065 172.29C668.569 163.654 682.417 168.33 687.285 169.05C689.457 169.367 691.835 168.603 693.807 167.709C694.061 168.165 694.416 168.558 694.844 168.858C698.13 171.147 700.84 174.167 702.76 177.681C715.432 201.368 701.54 213.946 696.734 217.348Z" fill="#3FBDF1"/>
<path d="M646.147 322.54H651.243C653.423 322.538 655.512 321.67 657.053 320.13C658.594 318.588 659.461 316.499 659.464 314.319V308.616C659.464 308.096 659.361 307.581 659.162 307.101C658.963 306.62 658.671 306.184 658.303 305.817C657.935 305.449 657.499 305.158 657.018 304.96C656.538 304.761 656.023 304.659 655.503 304.66H625.027C625.028 305.874 624.789 307.076 624.325 308.198C623.861 309.32 623.18 310.339 622.321 311.197C621.463 312.055 620.443 312.736 619.321 313.2C618.199 313.663 616.997 313.901 615.783 313.899H505.655C505.657 316.191 506.567 318.388 508.188 320.007C509.808 321.628 512.005 322.538 514.296 322.54H663.594C663.789 322.54 663.982 322.502 664.162 322.428C664.343 322.353 664.507 322.244 664.645 322.106C664.782 321.968 664.892 321.804 664.966 321.624C665.04 321.444 665.078 321.251 665.078 321.056V311.798C665.078 310 665.792 308.275 667.064 307.003C668.336 305.732 670.061 305.017 671.859 305.017C673.657 305.017 675.382 305.732 676.654 307.003C677.926 308.275 678.64 310 678.64 311.798V321.056C678.639 321.25 678.677 321.443 678.751 321.623C678.825 321.803 678.934 321.967 679.072 322.105C679.209 322.242 679.373 322.352 679.552 322.427C679.732 322.501 679.925 322.54 680.119 322.54H861.369C861.369 322.54 855.835 243.604 804.976 205.211C755.756 168.057 709.675 185.963 706.752 187.161L706.609 187.215" stroke="black" stroke-width="2.15901" stroke-miterlimit="10"/>
<path d="M655.789 206.481C655.787 206.977 655.639 207.462 655.362 207.874C655.085 208.286 654.692 208.607 654.233 208.795C653.774 208.984 653.27 209.033 652.783 208.935C652.296 208.838 651.85 208.598 651.499 208.247C651.148 207.896 650.91 207.448 650.813 206.962C650.716 206.475 650.766 205.971 650.956 205.512C651.145 205.053 651.467 204.661 651.879 204.385C652.291 204.109 652.776 203.961 653.273 203.96C653.467 203.961 653.661 203.985 653.849 204.032C653.589 204.114 653.362 204.277 653.201 204.497C653.04 204.718 652.954 204.984 652.955 205.256C652.954 205.428 652.987 205.597 653.051 205.756C653.116 205.914 653.211 206.059 653.332 206.18C653.452 206.302 653.595 206.399 653.753 206.465C653.911 206.531 654.08 206.566 654.252 206.566C654.564 206.56 654.866 206.444 655.102 206.239C655.339 206.035 655.497 205.753 655.548 205.444C655.702 205.769 655.784 206.122 655.789 206.481Z" fill="black"/>
<path d="M673.227 207.182C673.228 207.681 673.081 208.169 672.804 208.584C672.528 208.999 672.134 209.323 671.673 209.514C671.213 209.706 670.706 209.757 670.217 209.66C669.727 209.563 669.277 209.323 668.924 208.971C668.572 208.619 668.331 208.169 668.233 207.68C668.136 207.191 668.185 206.684 668.376 206.223C668.567 205.762 668.89 205.368 669.305 205.091C669.719 204.813 670.207 204.665 670.706 204.665C670.826 204.665 670.946 204.678 671.063 204.706C670.84 204.808 670.652 204.973 670.519 205.18C670.386 205.386 670.316 205.627 670.317 205.872C670.302 206.217 670.423 206.552 670.655 206.806C670.888 207.06 671.211 207.212 671.555 207.227C671.899 207.242 672.234 207.12 672.489 206.888C672.743 206.656 672.894 206.333 672.909 205.989C673.116 206.353 673.225 206.764 673.227 207.182Z" fill="black"/>
<path d="M693.337 164.169C693.047 166.126 693.409 167.843 694.848 168.862C698.134 171.151 700.844 174.172 702.764 177.686C717.882 205.932 695.206 218.363 695.206 218.363L692.139 212.999C700.968 208.493 701.87 199.669 694.848 197.506C687.826 195.342 685.488 205.252 685.488 205.252L683.879 186.679C683.879 186.679 680.625 185.066 671.81 186.505C662.995 187.944 661.372 192.812 657.586 190.653C653.8 188.494 651.654 188.669 651.654 188.669C650.577 192.625 647.694 192.625 647.694 192.625C639.246 191.547 637.261 179.858 637.261 179.858C641.548 179.322 641.879 175.192 641.391 171.812C643.765 173.225 647.122 173.328 651.829 170.301C665.333 161.665 679.181 166.345 684.044 167.065C687.406 167.552 691.263 165.496 693.337 164.169Z" stroke="black" stroke-width="2.15901" stroke-linecap="round" stroke-linejoin="round"/>
<path d="M701.133 304.24L704.472 302.899L706.975 309.653L706.582 321.91L703.198 322.522L690.356 321.968C690.356 321.968 691.25 314.494 693.981 310.941C696.712 307.387 701.133 304.24 701.133 304.24Z" fill="#3FBDF1"/>
<path d="M642.661 196.755C642.661 196.755 646.08 190.618 653.277 191.257" stroke="black" stroke-width="2.15901" stroke-miterlimit="10"/>
<path d="M667.371 191.255C667.371 191.255 675.596 189.409 678.475 193.982" stroke="black" stroke-width="2.15901" stroke-miterlimit="10"/>
<path d="M680.115 219.042C680.115 219.042 675.198 216.194 671.6 220.982" stroke="black" stroke-width="2.15901" stroke-miterlimit="10"/>
<path d="M649.044 192.24C649.044 192.24 645.544 233.413 671.644 232.653C676.114 232.524 680.557 229.587 684.804 224.862" stroke="black" stroke-width="2.15901" stroke-miterlimit="10"/>
<path d="M695.206 228.607L684.804 224.861C684.804 224.861 687.383 233.104 700.158 233.734C712.934 234.365 717.22 205.046 707.833 193.249" stroke="black" stroke-width="2.15901" stroke-linejoin="round"/>
<path d="M735.874 311.203C735.874 311.203 726.339 318.941 732.816 322.539" stroke="black" stroke-width="2.15901" stroke-miterlimit="10"/>
<path d="M728.498 304.003C728.498 304.003 711.959 313.363 726.16 322.54" stroke="black" stroke-width="2.15901" stroke-miterlimit="10"/>
<path d="M722.92 296.807C722.92 296.807 700.968 307.088 717.882 322.541" stroke="black" stroke-width="2.15901" stroke-miterlimit="10"/>
<path d="M815.234 322.54C815.234 322.54 841.866 322.54 842.224 296.806C842.582 271.072 790.582 206.454 756.932 197.465C723.282 188.475 721.838 213.11 721.838 214.12C721.838 215.13 719.862 225.742 728.498 237.064C735.168 245.817 764.625 267.666 777.695 277.16C778.175 277.51 778.538 277.997 778.734 278.557C778.931 279.117 778.952 279.724 778.795 280.296C778.639 280.869 778.311 281.38 777.857 281.763C777.402 282.144 776.842 282.379 776.251 282.435L718.445 287.987H718.409C717.864 288.085 697.463 291.849 691.25 298.241C691.25 298.241 687.768 300.82 689.569 304.78C691.37 308.741 696.904 307.436 697.056 307.288" stroke="black" stroke-width="2.15901" stroke-miterlimit="10"/>
<path opacity="0.26" d="M670.71 211.858C674.685 211.858 677.907 208.636 677.907 204.661C677.907 200.687 674.685 197.465 670.71 197.465C666.735 197.465 663.513 200.687 663.513 204.661C663.513 208.636 666.735 211.858 670.71 211.858Z" fill="white"/>
<path opacity="0.26" d="M652.446 211.147C656.42 211.147 659.642 207.925 659.642 203.951C659.642 199.976 656.42 196.754 652.446 196.754C648.471 196.754 645.249 199.976 645.249 203.951C645.249 207.925 648.471 211.147 652.446 211.147Z" fill="white"/>
<path d="M714.655 303.105C712.125 302.399 707.99 301.764 703.73 303.132C701.647 303.803 699.725 304.897 698.084 306.346C697.727 306.659 697.383 306.976 697.052 307.293C696.339 307.993 695.666 308.731 695.036 309.506C694.953 309.608 694.835 309.677 694.705 309.698C693.118 309.917 682.672 311.571 682.725 316.85C682.775 321.593 687.969 322.371 689.757 322.496C689.831 322.503 689.905 322.494 689.975 322.471C690.045 322.447 690.11 322.41 690.165 322.36C690.22 322.31 690.264 322.25 690.294 322.183C690.325 322.116 690.341 322.042 690.342 321.968C690.342 320.279 690.727 314.982 694.906 309.654" stroke="black" stroke-width="2.15901" stroke-miterlimit="10"/>
<path d="M620.534 265.847C621.759 275.721 614.084 280.186 605.694 280.848" stroke="black" stroke-width="2.15901" stroke-miterlimit="10"/>
<path d="M593.5 278.788C590.301 277.06 587.709 274.39 586.076 271.141C584.444 267.892 583.849 264.22 584.372 260.622C585.713 251.123 593.759 243.837 601.635 239.215C618.174 229.511 655.445 236.533 661.707 237.963C666.508 239.063 670.522 235.308 672.149 233.493C672.219 233.416 672.308 233.361 672.408 233.333C672.507 233.306 672.613 233.307 672.712 233.338C672.811 233.369 672.899 233.427 672.965 233.506C673.032 233.585 673.075 233.681 673.088 233.784C676.526 253.899 716.447 281.202 725.682 287.312" stroke="black" stroke-width="2.15901" stroke-miterlimit="10"/>
<path d="M630.605 259.018L617.387 267.22C616.6 267.711 615.718 268.031 614.799 268.16C613.88 268.288 612.945 268.223 612.053 267.967C611.16 267.712 610.332 267.273 609.62 266.678C608.908 266.082 608.329 265.344 607.92 264.512C607.183 263.015 607.037 261.297 607.511 259.698C607.984 258.098 609.044 256.737 610.477 255.884L630.592 243.9" stroke="black" stroke-width="2.15901" stroke-miterlimit="10"/>
<path d="M670.71 211.858C674.685 211.858 677.907 208.636 677.907 204.661C677.907 200.687 674.685 197.465 670.71 197.465C666.735 197.465 663.513 200.687 663.513 204.661C663.513 208.636 666.735 211.858 670.71 211.858Z" stroke="black" stroke-width="2.15901" stroke-miterlimit="10"/>
<path d="M652.446 210.07C655.825 210.07 658.565 207.33 658.565 203.951C658.565 200.571 655.825 197.831 652.446 197.831C649.066 197.831 646.326 200.571 646.326 203.951C646.326 207.33 649.066 210.07 652.446 210.07Z" stroke="white" stroke-width="2.15901" stroke-miterlimit="10"/>
<path d="M652.446 211.147C656.42 211.147 659.642 207.925 659.642 203.951C659.642 199.976 656.42 196.754 652.446 196.754C648.471 196.754 645.249 199.976 645.249 203.951C645.249 207.925 648.471 211.147 652.446 211.147Z" stroke="black" stroke-width="2.15901" stroke-miterlimit="10"/>
<path d="M663.549 203.952H659.642" stroke="black" stroke-width="2.15901" stroke-miterlimit="10"/>
<path d="M663.549 214.121H660.974C660.813 214.121 660.653 214.085 660.506 214.017C660.359 213.948 660.23 213.847 660.126 213.723C660.023 213.598 659.949 213.452 659.908 213.295C659.868 213.138 659.862 212.975 659.893 212.816L661.596 203.952" stroke="black" stroke-width="2.15901" stroke-miterlimit="10"/>
<path d="M611.889 238.683C611.889 238.683 602.712 240.663 599.476 254.52C597.509 262.933 594.809 273.665 592.995 280.799C592.762 281.714 592.741 282.671 592.934 283.595C593.127 284.519 593.529 285.387 594.108 286.133C594.688 286.879 595.43 287.482 596.278 287.897C597.126 288.312 598.058 288.528 599.002 288.528C600.412 288.528 601.78 288.048 602.881 287.166C603.981 286.284 604.748 285.054 605.055 283.678L608.894 266.451" stroke="black" stroke-width="2.15901" stroke-miterlimit="10"/>
<path d="M620.28 271.074C620.28 271.074 629.912 265.316 648.888 271.074C667.863 276.831 689.676 280.738 696.873 265.468" stroke="black" stroke-width="2.15901" stroke-miterlimit="10"/>
<path d="M703.734 303.131C703.734 303.131 710.439 310.784 706.363 322.54" stroke="black" stroke-width="2.15901" stroke-miterlimit="10"/>
<path d="M482.17 207.969H588.109C591.521 207.965 594.836 209.109 597.519 211.217C600.202 213.325 602.097 216.275 602.9 219.591L619.765 289.439C620.221 291.324 620.242 293.288 619.828 295.182C619.415 297.076 618.577 298.852 617.378 300.375C616.178 301.899 614.649 303.13 612.904 303.977C611.16 304.823 609.247 305.263 607.308 305.263H501.641C498.236 305.266 494.927 304.126 492.248 302.024C489.568 299.922 487.672 296.981 486.863 293.672L469.725 223.838C469.263 221.951 469.235 219.984 469.644 218.085C470.053 216.186 470.889 214.405 472.088 212.876C473.286 211.348 474.817 210.112 476.564 209.261C478.31 208.411 480.227 207.97 482.17 207.969Z" fill="#3FBDF1"/>
<path d="M486.028 210.974H585.423C588.624 210.978 591.732 212.057 594.249 214.037C596.765 216.017 598.545 218.783 599.302 221.895L615.135 287.42C615.562 289.188 615.583 291.03 615.195 292.807C614.807 294.584 614.022 296.25 612.896 297.679C611.771 299.109 610.337 300.264 608.7 301.058C607.064 301.853 605.269 302.265 603.45 302.265H504.296C501.104 302.258 498.006 301.184 495.495 299.213C492.984 297.243 491.205 294.488 490.439 291.39L474.347 225.859C473.913 224.089 473.887 222.243 474.271 220.461C474.655 218.679 475.439 217.008 476.565 215.574C477.69 214.14 479.127 212.98 480.766 212.183C482.406 211.387 484.205 210.973 486.028 210.974Z" fill="#3FBDF1"/>
<path d="M482.17 207.969H588.109C591.521 207.965 594.836 209.109 597.519 211.217C600.202 213.325 602.097 216.275 602.9 219.591L619.765 289.439C620.221 291.324 620.242 293.288 619.828 295.182C619.415 297.076 618.577 298.852 617.378 300.375C616.178 301.899 614.649 303.13 612.904 303.977C611.16 304.823 609.247 305.263 607.308 305.263H501.641C498.236 305.266 494.927 304.126 492.248 302.024C489.568 299.922 487.672 296.981 486.863 293.672L469.725 223.838C469.263 221.951 469.235 219.984 469.644 218.085C470.053 216.186 470.889 214.405 472.088 212.876C473.286 211.348 474.817 210.112 476.564 209.261C478.31 208.411 480.227 207.97 482.17 207.969Z" stroke="black" stroke-width="2.15901" stroke-miterlimit="10"/>
<path d="M531.787 254.493L525.471 225.049C525.34 224.427 524.998 223.868 524.504 223.467C524.01 223.066 523.394 222.847 522.758 222.846H491.503C491.083 222.847 490.668 222.944 490.291 223.129C489.913 223.314 489.583 223.582 489.324 223.914C489.066 224.245 488.886 224.632 488.799 225.043C488.712 225.454 488.72 225.88 488.821 226.288L496.13 256.076C496.22 256.491 496.414 256.877 496.693 257.198C496.943 257.516 497.262 257.773 497.626 257.95C497.99 258.128 498.389 258.22 498.794 258.221H498.852L529.1 257.864C529.509 257.858 529.911 257.762 530.278 257.583C530.645 257.403 530.968 257.145 531.224 256.827C531.484 256.504 531.67 256.127 531.767 255.724C531.865 255.32 531.871 254.9 531.787 254.493ZM490.909 225.76C490.886 225.672 490.884 225.58 490.903 225.491C490.921 225.402 490.96 225.318 491.016 225.246C491.073 225.172 491.147 225.111 491.232 225.069C491.316 225.027 491.409 225.005 491.503 225.005H522.758C522.898 225.004 523.035 225.052 523.144 225.141C523.254 225.23 523.328 225.354 523.357 225.492L528.166 247.918C512.106 232.412 510.286 250.202 510.286 250.202C501.221 245.482 498.602 250.649 497.842 254.051L490.909 225.76Z" fill="#D7E8F0"/>
<path d="M499.934 236.448C501.677 235.908 502.504 233.597 501.789 231.286C501.074 228.975 499.075 227.544 497.319 228.085C495.562 228.626 494.749 230.937 495.468 233.243C496.188 235.55 498.195 236.989 499.934 236.448Z" fill="#D7E8F0"/>
<path d="M507.586 235.921H517.841C519.115 235.921 520.393 235.921 521.667 235.921H521.85C522.209 235.93 522.565 235.863 522.896 235.724C523.125 235.611 523.319 235.439 523.459 235.226C523.599 235.013 523.68 234.766 523.694 234.512C523.707 234.257 523.653 234.003 523.537 233.776C523.42 233.55 523.245 233.358 523.03 233.221C522.789 233.111 522.57 232.96 522.382 232.774C522.258 232.577 522.172 232.359 522.132 232.13C521.895 231.483 521.438 230.94 520.84 230.597C520.405 230.304 519.916 230.103 519.401 230.004C518.887 229.904 518.357 229.91 517.845 230.02C517.339 230.148 516.877 230.407 516.504 230.771C516.187 231.084 516.124 231.504 515.878 231.853C515.717 232.081 515.615 232.009 515.395 231.884C515.176 231.759 515.056 231.665 514.877 231.576C514.524 231.387 514.158 231.224 513.782 231.088C513.015 230.805 512.198 230.684 511.381 230.735C509.947 230.847 508.516 231.701 508.016 233.051C507.564 233.057 507.13 233.224 506.791 233.521C506.452 233.818 506.23 234.227 506.165 234.673C506.135 234.846 506.147 235.023 506.198 235.189C506.249 235.356 506.339 235.509 506.46 235.634C506.786 235.869 507.188 235.971 507.586 235.921Z" fill="#D7E8F0"/>
<path d="M581.1 235.285L580.278 231.901C579.726 229.626 578.426 227.603 576.585 226.157C574.745 224.71 572.472 223.925 570.131 223.927H558.835C557.546 223.925 556.275 224.221 555.119 224.792C553.963 225.362 552.955 226.191 552.172 227.215C551.389 228.239 550.853 229.43 550.605 230.694C550.358 231.959 550.405 233.264 550.744 234.507L551.678 237.945C552.275 240.156 553.584 242.109 555.403 243.502C557.223 244.894 559.45 245.648 561.74 245.646H572.969C574.237 245.645 575.489 245.356 576.629 244.801C577.769 244.245 578.769 243.439 579.552 242.441C580.335 241.443 580.881 240.281 581.149 239.041C581.417 237.801 581.4 236.517 581.1 235.285ZM568.678 236.121L564.82 238.494C564.672 238.589 564.503 238.648 564.328 238.666C564.153 238.684 563.976 238.662 563.811 238.6C563.646 238.539 563.498 238.44 563.377 238.312C563.257 238.183 563.168 238.028 563.117 237.86L561.664 233.112C561.604 232.902 561.604 232.678 561.665 232.467C561.726 232.257 561.846 232.068 562.01 231.923C562.174 231.778 562.377 231.682 562.593 231.648C562.81 231.613 563.032 231.64 563.233 231.727L568.584 234.091C568.775 234.178 568.939 234.314 569.058 234.487C569.177 234.66 569.246 234.862 569.257 235.072C569.269 235.282 569.222 235.49 569.124 235.675C569.024 235.86 568.876 236.014 568.696 236.121H568.678Z" fill="white"/>
<path d="M578.579 265.681H558.817C557.912 265.68 557.028 265.415 556.27 264.92C555.513 264.425 554.917 263.72 554.553 262.892C554.44 262.637 554.379 262.361 554.374 262.083C554.379 261.543 554.596 261.028 554.978 260.648C555.361 260.268 555.878 260.055 556.417 260.053H577.426C576.438 261.725 576.938 264.036 578.579 265.681Z" fill="#D7E8F0"/>
<path d="M591.381 263.652C591.38 264.19 591.166 264.705 590.785 265.086C590.405 265.466 589.889 265.68 589.352 265.681H578.579C576.938 264.036 576.438 261.725 577.426 260.053H586.911C587.814 260.054 588.698 260.316 589.455 260.809C590.212 261.302 590.809 262.003 591.175 262.829C591.299 263.087 591.369 263.366 591.381 263.652Z" fill="#3FBDF1"/>
<path d="M586.415 265.681C586.359 265.789 586.295 265.892 586.223 265.99C584.81 267.916 581.753 268.095 579.379 266.361C579.096 266.155 578.828 265.928 578.579 265.681C576.938 264.036 576.438 261.725 577.426 260.054C577.481 259.947 577.545 259.846 577.618 259.75C579.017 257.81 582.088 257.64 584.448 259.361C584.734 259.572 585.005 259.803 585.257 260.054C586.911 261.699 587.389 264.01 586.415 265.681Z" fill="white"/>
<path d="M596.329 276.079C596.324 276.619 596.108 277.134 595.725 277.514C595.342 277.894 594.826 278.108 594.287 278.109H515.963C516.964 276.428 516.464 274.126 514.819 272.486H591.886C592.79 272.485 593.675 272.748 594.431 273.243C595.188 273.738 595.784 274.442 596.146 275.27C596.262 275.525 596.324 275.8 596.329 276.079Z" fill="#3FBDF1"/>
<path d="M515.963 278.086H506.205C505.302 278.086 504.418 277.824 503.661 277.331C502.904 276.838 502.306 276.136 501.941 275.31C501.826 275.051 501.765 274.771 501.762 274.488C501.762 274.221 501.813 273.958 501.915 273.711C502.017 273.465 502.167 273.241 502.355 273.053C502.544 272.865 502.768 272.716 503.014 272.614C503.261 272.513 503.525 272.462 503.791 272.463H514.819C516.464 274.103 516.964 276.405 515.963 278.086Z" fill="#D7E8F0"/>
<path d="M515.963 278.086C515.917 278.196 515.857 278.3 515.784 278.394C514.385 280.334 511.314 280.5 508.95 278.779C508.665 278.568 508.396 278.336 508.145 278.086C506.514 276.441 506.013 274.144 506.987 272.463C507.041 272.354 507.106 272.251 507.18 272.154C508.592 270.228 511.65 270.049 514.023 271.779C514.307 271.985 514.573 272.214 514.819 272.463C516.464 274.103 516.964 276.405 515.963 278.086Z" fill="white"/>
<path d="M522.874 290.383H510.474C509.571 290.383 508.687 290.12 507.931 289.627C507.174 289.135 506.576 288.433 506.21 287.608C506.087 287.358 506.016 287.086 506.004 286.807C506.005 286.268 506.22 285.75 506.603 285.368C506.984 284.986 507.502 284.771 508.042 284.769H521.707C520.755 286.459 521.242 288.756 522.874 290.383Z" fill="#3FBDF1"/>
<path d="M600.58 288.386C600.573 288.922 600.354 289.434 599.97 289.808C599.586 290.183 599.069 290.39 598.533 290.384H522.874C521.242 288.739 520.742 286.441 521.716 284.761H596.137C597.041 284.76 597.926 285.023 598.682 285.518C599.439 286.013 600.034 286.717 600.397 287.545C600.515 287.81 600.578 288.096 600.58 288.386Z" fill="#D7E8F0"/>
<path d="M530.705 290.383C530.651 290.492 530.587 290.595 530.513 290.692C529.114 292.632 526.043 292.797 523.683 291.076C523.397 290.866 523.126 290.634 522.874 290.383C521.242 288.739 520.742 286.441 521.716 284.76C521.772 284.653 521.836 284.55 521.908 284.452C523.321 282.525 526.378 282.355 528.752 284.076C529.036 284.281 529.302 284.51 529.547 284.76C531.192 286.419 531.693 288.73 530.705 290.383Z" fill="white"/>
<g opacity="0.21">
<path opacity="0.21" d="M532.869 255.57L526.566 226.126C526.435 225.503 526.094 224.944 525.6 224.544C525.106 224.143 524.489 223.925 523.853 223.927H492.594C492.171 223.927 491.753 224.024 491.373 224.21C490.994 224.397 490.662 224.669 490.404 225.004C490.148 225.332 489.97 225.715 489.885 226.122C489.8 226.53 489.809 226.952 489.912 227.355L497.22 257.148C497.31 257.562 497.502 257.949 497.779 258.27C498.03 258.587 498.35 258.844 498.715 259.021C499.08 259.198 499.48 259.289 499.885 259.289H499.956L530.2 258.927C530.608 258.922 531.009 258.827 531.375 258.648C531.742 258.47 532.064 258.212 532.319 257.894C532.576 257.571 532.758 257.195 532.853 256.793C532.948 256.392 532.954 255.974 532.869 255.57ZM491.986 226.841C491.963 226.753 491.961 226.66 491.981 226.571C492 226.482 492.041 226.398 492.098 226.327C492.154 226.252 492.227 226.191 492.311 226.149C492.394 226.107 492.487 226.085 492.581 226.086H523.835C523.976 226.085 524.112 226.132 524.222 226.22C524.332 226.308 524.408 226.431 524.438 226.568L529.248 248.994C513.183 233.483 511.368 251.279 511.368 251.279C502.307 246.558 499.683 251.726 498.928 255.127L491.986 226.841Z" fill="#D7E8F0"/>
<path opacity="0.21" d="M501.015 237.525C502.754 236.984 503.586 234.673 502.866 232.367C502.146 230.06 500.157 228.621 498.396 229.162C496.635 229.703 495.826 232.014 496.541 234.325C497.256 236.636 499.299 238.084 501.015 237.525Z" fill="#D7E8F0"/>
<path opacity="0.21" d="M508.686 237.001H518.936C520.214 237.001 521.488 237.001 522.766 237.001H522.945C523.304 237.011 523.66 236.944 523.991 236.804C524.221 236.692 524.416 236.52 524.557 236.308C524.698 236.094 524.78 235.847 524.794 235.592C524.807 235.337 524.753 235.083 524.635 234.856C524.518 234.629 524.342 234.437 524.125 234.301C523.887 234.188 523.668 234.037 523.477 233.854C523.357 233.655 523.272 233.435 523.227 233.206C522.99 232.561 522.534 232.02 521.94 231.677C521.505 231.384 521.014 231.181 520.499 231.082C519.983 230.983 519.453 230.989 518.94 231.101C518.443 231.229 517.989 231.489 517.626 231.851C517.304 232.164 517.246 232.58 517 232.933C516.839 233.161 516.736 233.09 516.517 232.96C516.298 232.83 516.178 232.745 515.999 232.652C515.646 232.464 515.28 232.303 514.904 232.169C514.137 231.884 513.32 231.762 512.503 231.811C511.068 231.923 509.638 232.781 509.133 234.127C508.682 234.134 508.248 234.302 507.91 234.6C507.572 234.898 507.351 235.308 507.287 235.754C507.258 235.926 507.269 236.102 507.32 236.269C507.37 236.435 507.458 236.588 507.577 236.715C507.9 236.941 508.294 237.043 508.686 237.001Z" fill="#D7E8F0"/>
<path opacity="0.21" d="M582.2 236.362L581.377 232.983C580.825 230.707 579.523 228.684 577.683 227.236C575.841 225.789 573.568 225.003 571.226 225.004H559.912C558.625 225.003 557.355 225.299 556.2 225.869C555.046 226.438 554.038 227.266 553.256 228.288C552.473 229.31 551.937 230.499 551.688 231.762C551.439 233.025 551.485 234.329 551.821 235.571L552.756 239.013C553.353 241.225 554.664 243.178 556.483 244.57C558.303 245.963 560.531 246.716 562.822 246.715H574.051C575.319 246.715 576.571 246.428 577.713 245.874C578.854 245.32 579.855 244.514 580.639 243.517C581.424 242.52 581.972 241.359 582.242 240.119C582.513 238.88 582.498 237.595 582.2 236.362ZM569.773 237.189L565.902 239.576C565.754 239.671 565.586 239.729 565.411 239.748C565.236 239.766 565.059 239.744 564.894 239.682C564.73 239.621 564.582 239.522 564.462 239.393C564.342 239.265 564.253 239.11 564.203 238.941L562.773 234.19C562.713 233.98 562.714 233.757 562.776 233.547C562.837 233.337 562.957 233.149 563.122 233.004C563.286 232.859 563.487 232.764 563.704 232.73C563.92 232.695 564.141 232.723 564.342 232.809L569.652 235.169C569.841 235.256 570.002 235.393 570.119 235.564C570.236 235.735 570.304 235.936 570.317 236.143C570.329 236.35 570.285 236.557 570.189 236.741C570.094 236.925 569.95 237.08 569.773 237.189Z" fill="#D7E8F0"/>
<path opacity="0.21" d="M579.661 266.758H559.899C558.995 266.756 558.111 266.492 557.354 265.997C556.597 265.503 556 264.8 555.634 263.973C555.495 263.664 555.436 263.325 555.463 262.988C555.489 262.65 555.601 262.325 555.787 262.041C555.972 261.758 556.227 261.527 556.526 261.368C556.825 261.21 557.16 261.129 557.498 261.134H578.507C577.524 262.802 578.016 265.117 579.661 266.758Z" fill="#D7E8F0"/>
<path opacity="0.21" d="M592.436 264.728C592.436 265.266 592.223 265.781 591.843 266.161C591.464 266.542 590.948 266.756 590.411 266.757H579.661C578.016 265.117 577.515 262.801 578.503 261.134H587.993C588.896 261.134 589.78 261.396 590.538 261.889C591.295 262.381 591.892 263.084 592.257 263.91C592.372 264.168 592.432 264.446 592.436 264.728Z" fill="#3FBDF1"/>
<path opacity="0.21" d="M587.492 266.758C587.439 266.868 587.375 266.971 587.3 267.067C585.887 268.993 582.83 269.172 580.456 267.442C580.174 267.235 579.908 267.006 579.661 266.758C578.016 265.118 577.515 262.802 578.503 261.135C578.559 261.026 578.625 260.923 578.7 260.826C580.099 258.887 583.17 258.721 585.53 260.442C585.816 260.653 586.087 260.884 586.339 261.135C587.97 262.78 588.471 265.077 587.492 266.758Z" fill="white"/>
<path opacity="0.21" d="M597.407 277.137C597.402 277.675 597.184 278.191 596.802 278.57C596.42 278.949 595.902 279.162 595.364 279.162H517.045C518.046 277.481 517.546 275.183 515.901 273.538H592.963C593.869 273.538 594.754 273.802 595.511 274.298C596.269 274.793 596.865 275.498 597.228 276.328C597.343 276.582 597.403 276.858 597.407 277.137Z" fill="#3FBDF1"/>
<path opacity="0.21" d="M517.045 279.162H507.282C506.38 279.161 505.497 278.899 504.74 278.407C503.983 277.915 503.385 277.215 503.018 276.39C502.906 276.13 502.845 275.851 502.839 275.568C502.839 275.029 503.053 274.514 503.434 274.133C503.814 273.752 504.33 273.538 504.869 273.538H515.901C517.546 275.183 518.046 277.481 517.045 279.162Z" fill="#D7E8F0"/>
<path opacity="0.21" d="M517.045 279.163C516.999 279.274 516.937 279.378 516.862 279.471C515.463 281.411 512.392 281.581 510.031 279.86C509.745 279.648 509.475 279.415 509.222 279.163C507.591 277.522 507.09 275.22 508.069 273.54C508.122 273.43 508.186 273.326 508.261 273.231C509.674 271.305 512.731 271.126 515.105 272.86C515.386 273.067 515.652 273.294 515.901 273.54C517.546 275.185 518.046 277.482 517.045 279.163Z" fill="white"/>
<path opacity="0.21" d="M523.951 291.477H511.533C510.631 291.475 509.749 291.213 508.992 290.721C508.235 290.229 507.637 289.529 507.269 288.705C507.157 288.45 507.096 288.175 507.09 287.896C507.092 287.355 507.308 286.837 507.691 286.455C508.074 286.072 508.592 285.856 509.133 285.854H522.798C521.819 287.534 522.319 289.836 523.951 291.477Z" fill="#3FBDF1"/>
<path opacity="0.21" d="M601.662 289.461C601.662 289.727 601.608 289.99 601.506 290.235C601.404 290.48 601.254 290.703 601.066 290.89C600.877 291.077 600.654 291.226 600.408 291.326C600.162 291.427 599.898 291.478 599.633 291.477H523.951C522.319 289.836 521.819 287.534 522.798 285.854H597.214C598.12 285.854 599.005 286.117 599.762 286.613C600.519 287.108 601.116 287.814 601.479 288.643C601.595 288.9 601.657 289.179 601.662 289.461Z" fill="#D7E8F0"/>
<path opacity="0.21" d="M531.787 291.478C531.731 291.586 531.665 291.69 531.59 291.786C530.191 293.726 527.12 293.896 524.76 292.175C524.474 291.963 524.203 291.73 523.951 291.478C522.319 289.837 521.819 287.535 522.798 285.854C522.851 285.745 522.915 285.642 522.99 285.546C524.403 283.619 527.46 283.454 529.834 285.175C530.115 285.382 530.381 285.609 530.629 285.854C532.274 287.499 532.775 289.81 531.787 291.478Z" fill="white"/>
</g>
</svg>
